<svg aria-hidden="true" style="position: absolute; width: 0; height: 0; overflow: hidden;" version="1.1" xmlns="http://www.w3.org/2000/svg" xmlns:xlink="http://www.w3.org/1999/xlink">
<defs>
<symbol id="icon-addavatar" viewBox="0 0 33 32">
<path fill="#e6533c" style="fill: var(--color1, #e6533c)" d="M11.238 0.428l4.69 1.356c0.339 0.098 0.699 0.099 1.038 0.002l4.83-1.375c0.845-0.241 1.744 0.136 2.166 0.906l2.506 4.577c0.168 0.307 0.419 0.561 0.723 0.734l3.986 2.258c0.771 0.437 1.133 1.352 0.869 2.198l-1.381 4.428c-0.113 0.363-0.114 0.752-0.002 1.115l1.394 4.521c0.258 0.836-0.094 1.739-0.849 2.18l-4.443 2.597c-0.303 0.177-0.551 0.436-0.715 0.746l-2.114 4.004c-0.409 0.775-1.298 1.165-2.145 0.941l-4.863-1.284c-0.317-0.084-0.651-0.083-0.968 0.002l-4.715 1.264c-0.867 0.232-1.777-0.179-2.175-0.983l-2.106-4.256c-0.177-0.357-0.462-0.649-0.816-0.834l-4.304-2.247c-0.786-0.411-1.179-1.314-0.943-2.169l1.255-4.548c0.089-0.322 0.090-0.662 0.005-0.985l-1.288-4.843c-0.221-0.833 0.151-1.71 0.904-2.129l4.422-2.46c0.322-0.179 0.584-0.448 0.754-0.775l2.090-4.007c0.414-0.794 1.331-1.187 2.192-0.938z"></path>
<path fill="none" stroke="#efede8" style="stroke: var(--color2, #efede8)" stroke-linejoin="round" stroke-linecap="round" stroke-miterlimit="4" stroke-width="2" d="M16.5 10.75v10.5"></path>
<path fill="none" stroke="#efede8" style="stroke: var(--color2, #efede8)" stroke-linejoin="round" stroke-linecap="round" stroke-miterlimit="4" stroke-width="2" d="M11.25 16h10.5"></path>
</symbol>
<symbol id="icon-apple" viewBox="0 0 32 32">
<path fill="#ef8964" style="fill: var(--color3, #ef8964)" d="M19.454 4.758c0.102-0.031 0.198-0.082 0.28-0.151s0.15-0.153 0.199-0.248 0.079-0.199 0.087-0.306c0.008-0.107-0.005-0.214-0.039-0.315s-0.088-0.195-0.159-0.275c-0.071-0.080-0.157-0.146-0.253-0.192s-0.201-0.073-0.308-0.078c-0.107-0.005-0.214 0.011-0.314 0.048-1.501 0.499-2.435 1.731-2.986 3.051-0.074 0.178-0.142 0.359-0.203 0.542-0.3-0.568-0.683-1.087-1.138-1.541-0.615-0.616-1.35-1.1-2.159-1.422s-1.675-0.475-2.546-0.45c-0.928 0.026-1.669 0.768-1.694 1.694-0.025 0.87 0.128 1.737 0.45 2.546s0.806 1.543 1.422 2.159l0.050 0.048c-1.344 0.291-2.559 1.007-3.464 2.042s-1.454 2.334-1.563 3.705l-0.010 0.118c-0.211 2.636 0.35 5.275 1.616 7.597l0.576 1.053c0.016 0.027 0.032 0.054 0.051 0.080l1.6 2.243c0.363 0.508 0.832 0.931 1.374 1.239s1.146 0.495 1.768 0.546c0.622 0.051 1.248-0.033 1.833-0.248s1.118-0.555 1.559-0.996c0.068-0.068 0.148-0.122 0.237-0.158s0.183-0.056 0.279-0.056c0.096 0 0.191 0.019 0.279 0.056s0.169 0.090 0.237 0.158c0.441 0.441 0.973 0.781 1.559 0.996s1.212 0.3 1.833 0.248c0.622-0.052 1.225-0.238 1.768-0.546s1.012-0.731 1.374-1.239l1.6-2.242c0.019-0.026 0.036-0.053 0.051-0.082l0.574-1.053c1.266-2.321 1.827-4.961 1.616-7.597l-0.008-0.118c-0.071-0.884-0.324-1.743-0.745-2.523s-0.998-1.465-1.697-2.010-1.503-0.94-2.362-1.158c-0.859-0.218-1.754-0.256-2.628-0.11l-2.651 0.442c0.016-1.090 0.208-2.315 0.638-3.349 0.448-1.080 1.114-1.848 2.013-2.149h0.002zM11.054 14.358c-0.246 0.078-0.473 0.203-0.67 0.369s-0.359 0.37-0.477 0.599c-0.296 0.557-0.499 1.475-0.312 2.974 0.021 0.208-0.040 0.416-0.17 0.579s-0.319 0.269-0.526 0.295c-0.207 0.026-0.416-0.030-0.583-0.157s-0.277-0.313-0.308-0.519c-0.213-1.702-0.016-2.984 0.488-3.926 0.512-0.96 1.291-1.478 2.053-1.733 0.1-0.033 0.205-0.046 0.31-0.039s0.207 0.036 0.301 0.083c0.094 0.047 0.178 0.112 0.247 0.191s0.121 0.172 0.155 0.271c0.033 0.1 0.046 0.205 0.039 0.31s-0.036 0.207-0.083 0.301c-0.047 0.094-0.112 0.178-0.191 0.247s-0.172 0.121-0.271 0.155z"></path>
</symbol>
<symbol id="icon-back" viewBox="0 0 32 32">
<path fill="none" stroke="#e6533c" style="stroke: var(--color1, #e6533c)" stroke-linejoin="round" stroke-linecap="round" stroke-miterlimit="4" stroke-width="2.4" d="M13.867 22.667l-6.667-6.667M7.2 16l6.667-6.667M7.2 16h16"></path>
</symbol>
<symbol id="icon-bubble" viewBox="0 0 32 32">
<path fill="#ef8964" style="fill: var(--color3, #ef8964)" d="M20.793 16.346c3.778 0 6.84-3.062 6.84-6.84s-3.062-6.84-6.84-6.84c-3.778 0-6.84 3.062-6.84 6.84s3.062 6.84 6.84 6.84z"></path>
<path fill="#ef8964" style="fill: var(--color3, #ef8964)" d="M8.476 25.919c2.268 0 4.107-1.839 4.107-4.107s-1.839-4.107-4.107-4.107c-2.268 0-4.107 1.839-4.107 4.107s1.839 4.107 4.107 4.107z"></path>
<path fill="#ef8964" style="fill: var(--color3, #ef8964)" d="M22.151 29.332c1.885 0 3.413-1.528 3.413-3.413s-1.528-3.413-3.413-3.413c-1.885 0-3.413 1.528-3.413 3.413s1.528 3.413 3.413 3.413z"></path>
</symbol>
<symbol id="icon-calendar" viewBox="0 0 32 32">
<path fill="none" stroke="#efede8" style="stroke: var(--color2, #efede8)" stroke-linejoin="round" stroke-linecap="round" stroke-miterlimit="4" stroke-width="2.6667" d="M25.333 5.333h-18.667c-1.473 0-2.667 1.194-2.667 2.667v18.667c0 1.473 1.194 2.667 2.667 2.667h18.667c1.473 0 2.667-1.194 2.667-2.667v-18.667c0-1.473-1.194-2.667-2.667-2.667z"></path>
<path fill="none" stroke="#efede8" style="stroke: var(--color2, #efede8)" stroke-linejoin="round" stroke-linecap="round" stroke-miterlimit="4" stroke-width="2.6667" d="M21.333 2.667v5.333"></path>
<path fill="none" stroke="#efede8" style="stroke: var(--color2, #efede8)" stroke-linejoin="round" stroke-linecap="round" stroke-miterlimit="4" stroke-width="2.6667" d="M10.667 2.667v5.333"></path>
<path fill="none" stroke="#efede8" style="stroke: var(--color2, #efede8)" stroke-linejoin="round" stroke-linecap="round" stroke-miterlimit="4" stroke-width="2.6667" d="M4 13.333h24"></path>
</symbol>
<symbol id="icon-calories" viewBox="0 0 32 32">
<path fill="#ef8964" style="fill: var(--color3, #ef8964)" d="M16.001 22.291c-0.946 0.72-2.898 2.5-2.898 4.925 0 1.601 1.3 2.904 2.897 2.904s2.897-1.303 2.897-2.904c0-2.297-1.954-4.161-2.895-4.925z"></path>
<path fill="#ef8964" style="fill: var(--color3, #ef8964)" d="M22.789 5.57c-0.351-0.397-0.958-0.421-1.34-0.064l-4.412 4.117v-8.623c0-0.722-0.87-1.261-1.522-0.867-0.123 0.075-3.055 1.865-6.017 5.116-3.602 3.953-6.055 8.766-6.055 14.164 0 6.941 5.633 12.587 12.557 12.587-2.631 0-4.772-2.146-4.772-4.784 0-4.262 4.138-6.786 4.314-6.891 0.309-0.184 0.695-0.176 0.996 0.022 0.173 0.114 4.234 2.838 4.234 6.869 0 2.638-2.141 4.784-4.772 4.784 6.924 0 12.557-5.647 12.557-12.587 0-5.241-2.313-9.938-5.767-13.843z"></path>
</symbol>
<symbol id="icon-cancelsearch" viewBox="0 0 32 32">
<path fill="none" stroke="#e6533c" style="stroke: var(--color1, #e6533c)" stroke-linejoin="round" stroke-linecap="round" stroke-miterlimit="4" stroke-width="3.5556" d="M24 8l-16 16"></path>
<path fill="none" stroke="#e6533c" style="stroke: var(--color1, #e6533c)" stroke-linejoin="round" stroke-linecap="round" stroke-miterlimit="4" stroke-width="3.5556" d="M8 8l16 16"></path>
</symbol>
<symbol id="icon-chevrondown" viewBox="0 0 32 32">
<path fill="none" stroke="#efede8" style="stroke: var(--color2, #efede8)" stroke-linejoin="round" stroke-linecap="round" stroke-miterlimit="4" stroke-width="3.5556" d="M8 12l8 8 8-8"></path>
</symbol>
<symbol id="icon-chevronup" viewBox="0 0 32 32">
<path fill="none" stroke="#efede8" style="stroke: var(--color2, #efede8)" stroke-linejoin="round" stroke-linecap="round" stroke-miterlimit="4" stroke-width="3.5556" d="M24 20l-8-8-8 8"></path>
</symbol>
<symbol id="icon-closemodal" viewBox="0 0 32 32">
<path fill="none" stroke="#efede8" style="stroke: var(--color2, #efede8)" stroke-linejoin="round" stroke-linecap="round" stroke-miterlimit="4" stroke-width="2.4615" d="M24 8l-16 16"></path>
<path fill="none" stroke="#efede8" style="stroke: var(--color2, #efede8)" stroke-linejoin="round" stroke-linecap="round" stroke-miterlimit="4" stroke-width="2.4615" d="M8 8l16 16"></path>
</symbol>
<symbol id="icon-cutlery" viewBox="0 0 32 32">
<path fill="#ef8964" style="fill: var(--color3, #ef8964)" d="M24 4c0.327 0 0.642 0.12 0.886 0.337s0.4 0.516 0.438 0.84l0.009 0.156v21.333c-0 0.34-0.131 0.667-0.364 0.914s-0.552 0.396-0.891 0.416c-0.339 0.020-0.673-0.090-0.934-0.308s-0.428-0.528-0.468-0.865l-0.009-0.156v-6.667h-1.333c-0.327 0-0.642-0.12-0.886-0.337s-0.4-0.516-0.438-0.84l-0.009-0.156v-8c0-2.947 2-6.667 4-6.667zM16 4c0.327 0 0.642 0.12 0.886 0.337s0.4 0.516 0.438 0.84l0.009 0.156v6.667c-0 1.183-0.393 2.331-1.117 3.266s-1.738 1.603-2.883 1.899v9.501c-0 0.34-0.13 0.667-0.364 0.914s-0.552 0.396-0.891 0.416c-0.339 0.020-0.673-0.090-0.934-0.308s-0.428-0.528-0.468-0.865l-0.009-0.156v-9.501c-1.099-0.284-2.079-0.912-2.798-1.791s-1.137-1.965-1.196-3.099l-0.007-0.275v-6.667c0-0.34 0.13-0.667 0.364-0.914s0.552-0.396 0.891-0.416c0.339-0.020 0.673 0.090 0.934 0.309s0.428 0.528 0.468 0.865l0.009 0.156v6.667c0 0.468 0.123 0.928 0.357 1.333s0.571 0.742 0.976 0.976v-8.976c0-0.34 0.13-0.667 0.364-0.914s0.552-0.396 0.891-0.416c0.339-0.020 0.673 0.090 0.934 0.309s0.428 0.528 0.468 0.865l0.009 0.156 0.001 8.976c0.372-0.215 0.687-0.517 0.917-0.88s0.37-0.776 0.406-1.204l0.009-0.225v-6.667c0-0.354 0.14-0.693 0.391-0.943s0.589-0.391 0.943-0.391z"></path>
</symbol>
<symbol id="icon-deleteavatar" viewBox="0 0 33 32">
<path fill="#e6533c" style="fill: var(--color1, #e6533c)" d="M11.238 0.428l4.69 1.356c0.339 0.098 0.699 0.099 1.038 0.002l4.83-1.375c0.845-0.241 1.744 0.136 2.166 0.906l2.506 4.577c0.168 0.307 0.419 0.561 0.723 0.734l3.986 2.258c0.771 0.437 1.133 1.352 0.869 2.198l-1.381 4.428c-0.113 0.363-0.114 0.752-0.002 1.115l1.394 4.521c0.258 0.836-0.094 1.739-0.849 2.18l-4.443 2.597c-0.303 0.177-0.551 0.436-0.715 0.746l-2.114 4.004c-0.409 0.775-1.298 1.165-2.145 0.941l-4.863-1.284c-0.317-0.084-0.651-0.083-0.968 0.002l-4.715 1.264c-0.867 0.232-1.777-0.179-2.175-0.983l-2.106-4.256c-0.177-0.357-0.462-0.649-0.816-0.834l-4.304-2.247c-0.786-0.411-1.179-1.314-0.943-2.169l1.255-4.548c0.089-0.322 0.090-0.662 0.005-0.985l-1.288-4.843c-0.221-0.833 0.151-1.71 0.904-2.129l4.422-2.46c0.322-0.179 0.584-0.448 0.754-0.775l2.090-4.007c0.414-0.794 1.331-1.187 2.192-0.938z"></path>
<path fill="none" stroke="#efede8" style="stroke: var(--color2, #efede8)" stroke-linejoin="round" stroke-linecap="round" stroke-miterlimit="4" stroke-width="2" d="M11.25 16h10.5"></path>
</symbol>
<symbol id="icon-dumbbell" viewBox="0 0 32 32">
<path fill="#ef8964" style="fill: var(--color3, #ef8964)" d="M5.2 8h-2.4c-0.665 0-1.2 0.535-1.2 1.2v5.2h-1.2c-0.22 0-0.4 0.18-0.4 0.4v2.4c0 0.22 0.18 0.4 0.4 0.4h1.2v5.2c0 0.665 0.535 1.2 1.2 1.2h2.4c0.665 0 1.2-0.535 1.2-1.2v-13.6c0-0.665-0.535-1.2-1.2-1.2zM31.6 14.4h-1.2v-5.2c0-0.665-0.535-1.2-1.2-1.2h-2.4c-0.665 0-1.2 0.535-1.2 1.2v13.6c0 0.665 0.535 1.2 1.2 1.2h2.4c0.665 0 1.2-0.535 1.2-1.2v-5.2h1.2c0.22 0 0.4-0.18 0.4-0.4v-2.4c0-0.22-0.18-0.4-0.4-0.4zM22.8 4.8h-2.4c-0.665 0-1.2 0.535-1.2 1.2v8.4h-6.4v-8.4c0-0.665-0.535-1.2-1.2-1.2h-2.4c-0.665 0-1.2 0.535-1.2 1.2v20c0 0.665 0.535 1.2 1.2 1.2h2.4c0.665 0 1.2-0.535 1.2-1.2v-8.4h6.4v8.4c0 0.665 0.535 1.2 1.2 1.2h2.4c0.665 0 1.2-0.535 1.2-1.2v-20c0-0.665-0.535-1.2-1.2-1.2z"></path>
</symbol>
<symbol id="icon-eye" viewBox="0 0 32 32">
<path fill="none" stroke="#efede8" style="stroke: var(--color2, #efede8)" stroke-linejoin="round" stroke-linecap="round" stroke-miterlimit="4" stroke-width="2.88" d="M1.333 16c0 0 5.333-10.667 14.667-10.667s14.667 10.667 14.667 10.667-5.333 10.667-14.667 10.667c-9.333 0-14.667-10.667-14.667-10.667z"></path>
<path fill="none" stroke="#efede8" style="stroke: var(--color2, #efede8)" stroke-linejoin="round" stroke-linecap="round" stroke-miterlimit="4" stroke-width="2.88" d="M16 20c2.209 0 4-1.791 4-4s-1.791-4-4-4c-2.209 0-4 1.791-4 4s1.791 4 4 4z"></path>
</symbol>
<symbol id="icon-eyeoff" viewBox="0 0 32 32">
<path fill="none" stroke="#efede8" style="stroke: var(--color2, #efede8)" stroke-linejoin="round" stroke-linecap="round" stroke-miterlimit="4" stroke-width="2.88" d="M23.92 23.92c-2.279 1.737-5.055 2.7-7.92 2.747-9.333 0-14.667-10.667-14.667-10.667 1.659-3.091 3.959-5.791 6.747-7.92M13.2 5.653c0.918-0.215 1.857-0.322 2.8-0.32 9.333 0 14.667 10.667 14.667 10.667-0.809 1.514-1.775 2.94-2.88 4.253M18.827 18.827c-0.366 0.393-0.808 0.708-1.299 0.927s-1.020 0.336-1.557 0.346c-0.537 0.009-1.071-0.089-1.569-0.291s-0.95-0.501-1.33-0.88c-0.38-0.38-0.679-0.832-0.88-1.33s-0.3-1.032-0.29-1.569c0.009-0.537 0.127-1.067 0.346-1.558s0.534-0.932 0.927-1.298"></path>
<path fill="none" stroke="#efede8" style="stroke: var(--color2, #efede8)" stroke-linejoin="round" stroke-linecap="round" stroke-miterlimit="4" stroke-width="2.88" d="M1.333 1.333l29.333 29.333"></path>
</symbol>
<symbol id="icon-logo" viewBox="0 0 32 32">
<path fill="#e6533c" style="fill: var(--color1, #e6533c)" d="M8.907 15.764c0.13 0 0.236 0.106 0.236 0.236s-0.106 0.236-0.236 0.236h-0.163c-0.14 0-0.254 0.114-0.254 0.254v0.435c0 0.14-0.114 0.254-0.254 0.254h-0.163c-0.13 0-0.236 0.106-0.236 0.236s-0.106 0.236-0.236 0.236h-0.49c-0.14 0-0.254-0.114-0.254-0.254v-0.907c0-0.14-0.114-0.254-0.254-0.254h-4.064c-0.14 0-0.254 0.114-0.254 0.254v0.907c0 0.14-0.114 0.254-0.254 0.254h-0.49c-0.13 0-0.236-0.106-0.236-0.236s-0.106-0.236-0.236-0.236h-0.163c-0.14 0-0.254-0.114-0.254-0.254v-0.435c0-0.14-0.114-0.254-0.254-0.254h-0.163c-0.13 0-0.236-0.106-0.236-0.236s0.106-0.236 0.236-0.236h0.163c0.14 0 0.254-0.114 0.254-0.254v-0.435c0-0.14 0.114-0.254 0.254-0.254h0.163c0.13 0 0.236-0.106 0.236-0.236s0.106-0.236 0.236-0.236h0.49c0.14 0 0.254 0.114 0.254 0.254v0.907c0 0.14 0.114 0.254 0.254 0.254h4.064c0.14 0 0.254-0.114 0.254-0.254v-0.907c0-0.14 0.114-0.254 0.254-0.254h0.49c0.13 0 0.236 0.106 0.236 0.236s0.106 0.236 0.236 0.236h0.163c0.14 0 0.254 0.114 0.254 0.254v0.435c0 0.14 0.114 0.254 0.254 0.254h0.163z"></path>
<path fill="#efede8" style="fill: var(--color2, #efede8)" d="M11.175 17.472v-2.796h1.046c0.159 0 0.303 0.038 0.431 0.114 0.13 0.076 0.232 0.178 0.308 0.306s0.113 0.268 0.113 0.421c0 0.157-0.039 0.3-0.117 0.427-0.077 0.126-0.18 0.228-0.31 0.304-0.13 0.075-0.271 0.112-0.425 0.112h-0.536v1.112h-0.511zM11.685 15.872h0.481c0.073 0 0.139-0.017 0.199-0.052s0.107-0.081 0.142-0.14c0.036-0.059 0.054-0.124 0.054-0.196 0-0.073-0.018-0.139-0.054-0.198-0.035-0.059-0.082-0.105-0.142-0.14s-0.126-0.052-0.199-0.052h-0.481v0.777z"></path>
<path fill="#efede8" style="fill: var(--color2, #efede8)" d="M14.233 17.524c-0.192 0-0.368-0.047-0.527-0.142-0.158-0.095-0.284-0.221-0.379-0.379-0.093-0.16-0.14-0.336-0.14-0.529 0-0.146 0.027-0.283 0.082-0.409 0.054-0.128 0.129-0.24 0.224-0.336 0.096-0.097 0.208-0.173 0.335-0.228s0.262-0.082 0.406-0.082c0.193 0 0.368 0.047 0.525 0.142 0.159 0.095 0.285 0.222 0.379 0.381 0.095 0.16 0.142 0.337 0.142 0.531 0 0.145-0.027 0.281-0.082 0.407s-0.13 0.238-0.226 0.336c-0.095 0.096-0.206 0.171-0.333 0.226-0.126 0.055-0.261 0.082-0.406 0.082zM14.233 17.037c0.102 0 0.193-0.026 0.274-0.078s0.144-0.12 0.19-0.206c0.047-0.085 0.071-0.178 0.071-0.28 0-0.104-0.024-0.198-0.073-0.284-0.047-0.087-0.112-0.155-0.195-0.206-0.081-0.052-0.17-0.078-0.268-0.078-0.1 0-0.191 0.026-0.272 0.078s-0.145 0.121-0.193 0.208c-0.047 0.087-0.071 0.18-0.071 0.282 0 0.105 0.024 0.2 0.073 0.286s0.114 0.153 0.195 0.204c0.082 0.049 0.172 0.074 0.268 0.074z"></path>
<path fill="#efede8" style="fill: var(--color2, #efede8)" d="M16.586 17.472h-0.506l-0.699-1.997h0.5l0.454 1.292 0.452-1.292h0.504l0.452 1.292 0.454-1.292h0.5l-0.699 1.997h-0.506l-0.454-1.298-0.452 1.298z"></path>
<path fill="#efede8" style="fill: var(--color2, #efede8)" d="M19.848 17.524c-0.192 0-0.368-0.047-0.527-0.142-0.158-0.095-0.284-0.222-0.379-0.381-0.093-0.16-0.14-0.336-0.14-0.529 0-0.145 0.027-0.281 0.082-0.407 0.054-0.128 0.129-0.24 0.224-0.336 0.096-0.097 0.208-0.173 0.335-0.228s0.262-0.082 0.406-0.082c0.163 0 0.312 0.033 0.448 0.1 0.137 0.065 0.253 0.155 0.347 0.27s0.164 0.245 0.207 0.391c0.043 0.146 0.053 0.3 0.029 0.459h-1.53c0.020 0.075 0.052 0.142 0.096 0.202 0.045 0.059 0.101 0.106 0.169 0.142 0.068 0.035 0.146 0.053 0.232 0.054 0.089 0.001 0.17-0.019 0.243-0.060 0.074-0.043 0.135-0.1 0.184-0.172l0.521 0.116c-0.085 0.177-0.212 0.322-0.381 0.435-0.169 0.112-0.358 0.168-0.567 0.168zM19.333 16.274h1.029c-0.015-0.080-0.048-0.152-0.098-0.216-0.049-0.065-0.11-0.117-0.182-0.156s-0.151-0.058-0.234-0.058c-0.084 0-0.161 0.019-0.232 0.058-0.071 0.037-0.132 0.089-0.182 0.154-0.049 0.064-0.082 0.136-0.1 0.218z"></path>
<path fill="#efede8" style="fill: var(--color2, #efede8)" d="M21.222 17.472l-0.002-1.997h0.511l0.002 0.178c0.071-0.072 0.156-0.128 0.255-0.17 0.099-0.043 0.206-0.064 0.32-0.064 0.077 0 0.153 0.011 0.23 0.032l-0.201 0.491c-0.053-0.020-0.106-0.030-0.159-0.030-0.082 0-0.158 0.019-0.226 0.058-0.067 0.037-0.121 0.089-0.161 0.154-0.039 0.064-0.059 0.135-0.059 0.214v1.134h-0.511z"></path>
<path fill="#efede8" style="fill: var(--color2, #efede8)" d="M22.773 17.472v-2.796h1.046c0.159 0 0.303 0.038 0.431 0.114 0.13 0.076 0.232 0.178 0.308 0.306s0.113 0.268 0.113 0.421c0 0.157-0.039 0.3-0.117 0.427-0.077 0.126-0.18 0.228-0.31 0.304-0.13 0.075-0.271 0.112-0.425 0.112h-0.536v1.112h-0.511zM23.283 15.872h0.481c0.073 0 0.139-0.017 0.199-0.052s0.107-0.081 0.142-0.14c0.036-0.059 0.054-0.124 0.054-0.196 0-0.073-0.018-0.139-0.054-0.198-0.035-0.059-0.082-0.105-0.142-0.14s-0.126-0.052-0.199-0.052h-0.481v0.777z"></path>
<path fill="#efede8" style="fill: var(--color2, #efede8)" d="M24.888 16.733v-1.258h0.511v1.13c0 0.079 0.020 0.15 0.060 0.216 0.041 0.064 0.094 0.115 0.161 0.154 0.068 0.037 0.143 0.056 0.224 0.056 0.084 0 0.159-0.019 0.226-0.056 0.067-0.039 0.121-0.090 0.161-0.154 0.040-0.065 0.061-0.137 0.061-0.216v-1.13h0.51l0.002 1.997h-0.51l-0.002-0.182c-0.073 0.072-0.158 0.129-0.258 0.172-0.099 0.041-0.205 0.062-0.318 0.062-0.152 0-0.291-0.035-0.416-0.106-0.126-0.072-0.226-0.167-0.301-0.286-0.074-0.12-0.111-0.253-0.111-0.399z"></path>
<path fill="#efede8" style="fill: var(--color2, #efede8)" d="M27.236 17.472v-2.996h0.51v2.996h-0.51z"></path>
<path fill="#efede8" style="fill: var(--color2, #efede8)" d="M28.867 17.508c-0.109-0.007-0.214-0.027-0.316-0.062-0.101-0.036-0.19-0.085-0.268-0.146s-0.138-0.134-0.18-0.22l0.431-0.176c0.017 0.027 0.044 0.055 0.082 0.086 0.038 0.029 0.082 0.054 0.134 0.074 0.053 0.020 0.111 0.030 0.174 0.030 0.053 0 0.103-0.007 0.151-0.020 0.049-0.015 0.088-0.037 0.117-0.066 0.031-0.029 0.046-0.067 0.046-0.114 0-0.049-0.018-0.087-0.054-0.114-0.035-0.028-0.079-0.049-0.134-0.062-0.053-0.015-0.105-0.028-0.155-0.040-0.133-0.025-0.256-0.065-0.37-0.118-0.113-0.053-0.204-0.122-0.274-0.206-0.068-0.085-0.102-0.188-0.102-0.308 0-0.132 0.036-0.246 0.109-0.341 0.074-0.096 0.169-0.17 0.287-0.222 0.119-0.052 0.246-0.078 0.383-0.078 0.166 0 0.318 0.033 0.456 0.1 0.139 0.065 0.25 0.158 0.33 0.278l-0.404 0.228c-0.020-0.032-0.047-0.061-0.082-0.088-0.035-0.028-0.075-0.051-0.119-0.068-0.044-0.019-0.091-0.029-0.14-0.032-0.063-0.003-0.12 0.003-0.171 0.016s-0.093 0.036-0.126 0.068c-0.030 0.032-0.046 0.075-0.046 0.128 0 0.051 0.021 0.089 0.063 0.114 0.042 0.024 0.092 0.043 0.151 0.056 0.060 0.013 0.117 0.028 0.172 0.044 0.123 0.039 0.238 0.086 0.345 0.142 0.109 0.056 0.196 0.125 0.261 0.206s0.097 0.178 0.094 0.292c0 0.129-0.040 0.242-0.121 0.34-0.081 0.096-0.185 0.169-0.314 0.22-0.127 0.051-0.263 0.071-0.408 0.060z"></path>
<path fill="#efede8" style="fill: var(--color2, #efede8)" d="M30.956 17.524c-0.192 0-0.368-0.047-0.527-0.142-0.157-0.095-0.284-0.222-0.379-0.381-0.093-0.16-0.14-0.336-0.14-0.529 0-0.145 0.027-0.281 0.082-0.407 0.055-0.128 0.129-0.24 0.224-0.336 0.096-0.097 0.208-0.173 0.335-0.228s0.262-0.082 0.406-0.082c0.163 0 0.312 0.033 0.448 0.1 0.137 0.065 0.252 0.155 0.347 0.27s0.164 0.245 0.207 0.391 0.053 0.3 0.029 0.459h-1.529c0.020 0.075 0.052 0.142 0.096 0.202 0.044 0.059 0.101 0.106 0.169 0.142 0.068 0.035 0.146 0.053 0.232 0.054 0.089 0.001 0.17-0.019 0.243-0.060 0.074-0.043 0.135-0.1 0.184-0.172l0.521 0.116c-0.085 0.177-0.212 0.322-0.381 0.435-0.169 0.112-0.358 0.168-0.567 0.168zM30.441 16.274h1.029c-0.015-0.080-0.048-0.152-0.098-0.216-0.049-0.065-0.109-0.117-0.182-0.156s-0.151-0.058-0.234-0.058c-0.084 0-0.161 0.019-0.232 0.058-0.071 0.037-0.132 0.089-0.182 0.154-0.049 0.064-0.082 0.136-0.1 0.218z"></path>
</symbol>
<symbol id="icon-logout" viewBox="0 0 32 32">
<path fill="none" stroke="#e6533c" style="stroke: var(--color1, #e6533c)" stroke-linejoin="round" stroke-linecap="round" stroke-miterlimit="4" stroke-width="2.4" d="M12 4h-1.6c-2.24 0-3.36 0-4.216 0.436-0.753 0.383-1.365 0.995-1.748 1.748-0.436 0.856-0.436 1.976-0.436 4.216v11.2c0 2.24 0 3.36 0.436 4.216 0.383 0.753 0.995 1.364 1.748 1.748 0.856 0.436 1.976 0.436 4.216 0.436h1.6"></path>
<path fill="none" stroke="#e6533c" style="stroke: var(--color1, #e6533c)" stroke-linejoin="round" stroke-linecap="round" stroke-miterlimit="4" stroke-width="2.4" d="M21.333 22.667l6.667-6.667M28 16l-6.667-6.667M28 16h-16"></path>
</symbol>
<symbol id="icon-nextarrow" viewBox="0 0 32 32">
<path fill="none" stroke="#e6533c" style="stroke: var(--color1, #e6533c)" stroke-linejoin="round" stroke-linecap="round" stroke-miterlimit="4" stroke-width="2.4" d="M18.133 22.667l6.667-6.667M24.8 16l-6.667-6.667M24.8 16h-16"></path>
</symbol>
<symbol id="icon-pause" viewBox="0 0 32 32">
<path fill="#e6533c" style="fill: var(--color1, #e6533c); stroke: var(--color1, #e6533c)" stroke="#e6533c" stroke-linejoin="round" stroke-linecap="round" stroke-miterlimit="4" stroke-width="1" d="M4 10.4c0-2.24 0-3.36 0.436-4.216 0.383-0.753 0.995-1.365 1.748-1.748 0.856-0.436 1.976-0.436 4.216-0.436h11.2c2.24 0 3.36 0 4.216 0.436 0.753 0.383 1.364 0.995 1.748 1.748 0.436 0.856 0.436 1.976 0.436 4.216v11.2c0 2.24 0 3.36-0.436 4.216-0.384 0.753-0.995 1.364-1.748 1.748-0.856 0.436-1.976 0.436-4.216 0.436h-11.2c-2.24 0-3.36 0-4.216-0.436-0.753-0.384-1.365-0.995-1.748-1.748-0.436-0.856-0.436-1.976-0.436-4.216v-11.2z"></path>
<path fill="none" stroke="#efede8" style="stroke: var(--color2, #efede8)" stroke-linejoin="round" stroke-linecap="round" stroke-miterlimit="4" stroke-width="1.3" d="M12.666 20v-8M19.333 20v-8"></path>
</symbol>
<symbol id="icon-play" viewBox="0 0 32 32">
<path fill="#e6533c" style="fill: var(--color1, #e6533c); stroke: var(--color1, #e6533c)" stroke="#e6533c" stroke-linejoin="round" stroke-linecap="round" stroke-miterlimit="4" stroke-width="1" d="M4 10.4c0-2.24 0-3.36 0.436-4.216 0.383-0.753 0.995-1.365 1.748-1.748 0.856-0.436 1.976-0.436 4.216-0.436h11.2c2.24 0 3.36 0 4.216 0.436 0.753 0.383 1.364 0.995 1.748 1.748 0.436 0.856 0.436 1.976 0.436 4.216v11.2c0 2.24 0 3.36-0.436 4.216-0.384 0.753-0.995 1.364-1.748 1.748-0.856 0.436-1.976 0.436-4.216 0.436h-11.2c-2.24 0-3.36 0-4.216-0.436-0.753-0.384-1.365-0.995-1.748-1.748-0.436-0.856-0.436-1.976-0.436-4.216v-11.2z"></path>
<path fill="#efede8" style="fill: var(--color2, #efede8); stroke: var(--color2, #efede8)" stroke="#efede8" stroke-linejoin="round" stroke-linecap="round" stroke-miterlimit="4" stroke-width="1.3" d="M11.917 10.75l8.167 5.25-8.167 5.25v-10.5z"></path>
</symbol>
<symbol id="icon-playbutton" viewBox="0 0 32 32">
<path fill="#efede8" style="fill: var(--color2, #efede8)" d="M29.333 16l-26.667 15.396v-30.792l26.667 15.396z"></path>
</symbol>
<symbol id="icon-running" viewBox="0 0 32 32">
<path fill="#ef8964" style="fill: var(--color3, #ef8964)" d="M29.647 9.451c-0.419-0.501-1.166-0.567-1.667-0.149l-3.282 2.757-1.509-3.739c-0.054-0.14-0.135-0.258-0.229-0.362-0.308-0.686-0.844-1.275-1.582-1.617-0.32-0.146-0.652-0.224-0.982-0.262-0.073-0.038-0.139-0.088-0.222-0.114l-5.775-1.61c-0.324-0.088-0.65-0.031-0.917 0.125-0.317 0.107-0.589 0.338-0.719 0.672l-2.175 5.592c-0.236 0.608 0.066 1.294 0.676 1.534 0.607 0.236 1.294-0.068 1.532-0.678l1.837-4.722 2.63 0.731c-0.064 0.104-0.133 0.201-0.185 0.312l-3.372 7.309c-0.049 0.107-0.075 0.217-0.109 0.328l-4.098 6.871-6.859 2.294c-0.776 0.58-0.941 1.674-0.367 2.45 0.577 0.778 1.674 0.943 2.448 0.369l7.018-2.417c0.215-0.156 0.371-0.36 0.489-0.58 0.088-0.094 0.189-0.168 0.256-0.284l2.443-4.096 4.337 3.696-4.641 5.23c-0.639 0.721-0.575 1.832 0.149 2.469 0.723 0.643 1.83 0.575 2.473-0.149l5.791-6.524c0.18-0.201 0.288-0.433 0.36-0.676 0.043-0.132 0.043-0.269 0.054-0.406 0-0.069 0.026-0.132 0.021-0.196-0.016-0.478-0.21-0.943-0.601-1.274l-3.991-3.403c0.288-0.274 0.532-0.6 0.709-0.983l2.585-5.599 0.828 2.206c0.035 0.196 0.1 0.388 0.239 0.549 0.125 0.149 0.284 0.248 0.454 0.317 0.017 0.009 0.038 0.010 0.059 0.016 0.107 0.038 0.216 0.075 0.329 0.080 0.133 0.012 0.269-0.005 0.405-0.043 0.004-0.002 0.005-0.002 0.005-0.002 0.036-0.009 0.073-0.002 0.109-0.017 0.192-0.073 0.34-0.196 0.466-0.34l4.71-3.998c0.501-0.421 0.289-1.166-0.132-1.667z"></path>
<path fill="#ef8964" style="fill: var(--color3, #ef8964)" d="M23.689 6.602c1.823 0 3.301-1.478 3.301-3.301s-1.478-3.301-3.301-3.301c-1.823 0-3.301 1.478-3.301 3.301s1.478 3.301 3.301 3.301z"></path>
</symbol>
<symbol id="icon-search" viewBox="0 0 32 32">
<path fill="none" stroke="#efede8" style="stroke: var(--color2, #efede8)" stroke-linejoin="round" stroke-linecap="round" stroke-miterlimit="4" stroke-width="2.6667" d="M14.667 25.333c5.891 0 10.667-4.776 10.667-10.667s-4.776-10.667-10.667-10.667c-5.891 0-10.667 4.776-10.667 10.667s4.776 10.667 10.667 10.667z"></path>
<path fill="none" stroke="#efede8" style="stroke: var(--color2, #efede8)" stroke-linejoin="round" stroke-linecap="round" stroke-miterlimit="4" stroke-width="2.6667" d="M28 28l-5.8-5.8"></path>
</symbol>
<symbol id="icon-settings" viewBox="0 0 32 32">
<path fill="none" stroke="#efede8" style="stroke: var(--color2, #efede8)" stroke-linejoin="round" stroke-linecap="round" stroke-miterlimit="4" stroke-width="2.2857" d="M16 20c2.209 0 4-1.791 4-4s-1.791-4-4-4c-2.209 0-4 1.791-4 4s1.791 4 4 4z"></path>
<path fill="none" stroke="#efede8" style="stroke: var(--color2, #efede8)" stroke-linejoin="round" stroke-linecap="round" stroke-miterlimit="4" stroke-width="2.2857" d="M24.97 19.636c-0.161 0.366-0.209 0.771-0.138 1.164s0.259 0.756 0.538 1.042l0.073 0.073c0.225 0.225 0.404 0.492 0.526 0.787s0.185 0.61 0.185 0.928c0 0.319-0.063 0.634-0.185 0.928s-0.301 0.562-0.526 0.787c-0.225 0.225-0.493 0.404-0.787 0.526s-0.61 0.185-0.928 0.185c-0.319 0-0.634-0.063-0.928-0.185s-0.562-0.301-0.787-0.526l-0.073-0.073c-0.286-0.279-0.648-0.467-1.042-0.538s-0.799-0.023-1.164 0.138c-0.358 0.154-0.664 0.409-0.88 0.734s-0.331 0.706-0.333 1.096v0.206c0 0.643-0.255 1.26-0.71 1.714s-1.071 0.71-1.714 0.71c-0.643 0-1.26-0.255-1.714-0.71s-0.71-1.071-0.71-1.714v-0.109c-0.009-0.401-0.139-0.79-0.373-1.117s-0.56-0.575-0.936-0.714c-0.366-0.161-0.771-0.209-1.164-0.138s-0.756 0.259-1.042 0.538l-0.073 0.073c-0.225 0.225-0.492 0.404-0.787 0.526s-0.61 0.185-0.928 0.185-0.634-0.063-0.928-0.185c-0.294-0.122-0.562-0.301-0.787-0.526s-0.404-0.493-0.526-0.787-0.185-0.61-0.185-0.928c0-0.319 0.063-0.634 0.185-0.928s0.301-0.562 0.526-0.787l0.073-0.073c0.279-0.286 0.467-0.648 0.538-1.042s0.023-0.799-0.138-1.164c-0.154-0.358-0.409-0.664-0.734-0.88s-0.706-0.331-1.096-0.332h-0.206c-0.643 0-1.26-0.255-1.714-0.71s-0.71-1.071-0.71-1.714c0-0.643 0.255-1.26 0.71-1.714s1.071-0.71 1.714-0.71h0.109c0.401-0.009 0.79-0.139 1.117-0.373s0.575-0.56 0.714-0.936c0.161-0.366 0.21-0.771 0.138-1.164s-0.259-0.756-0.538-1.042l-0.073-0.073c-0.225-0.225-0.404-0.492-0.526-0.787s-0.185-0.61-0.185-0.928c0-0.319 0.063-0.634 0.185-0.928s0.301-0.562 0.526-0.787c0.225-0.225 0.492-0.404 0.787-0.526s0.61-0.185 0.928-0.185c0.319 0 0.634 0.063 0.928 0.185s0.562 0.301 0.787 0.526l0.073 0.073c0.286 0.279 0.649 0.467 1.042 0.538s0.799 0.023 1.164-0.138h0.097c0.358-0.154 0.664-0.409 0.88-0.734s0.331-0.706 0.333-1.096v-0.206c0-0.643 0.255-1.26 0.71-1.714s1.071-0.71 1.714-0.71c0.643 0 1.26 0.255 1.714 0.71s0.71 1.071 0.71 1.714v0.109c0.002 0.39 0.117 0.771 0.332 1.096s0.521 0.58 0.88 0.734c0.366 0.161 0.771 0.209 1.164 0.138s0.756-0.259 1.042-0.538l0.073-0.073c0.225-0.225 0.493-0.404 0.787-0.526s0.61-0.185 0.928-0.185c0.319 0 0.634 0.063 0.928 0.185s0.562 0.301 0.787 0.526c0.226 0.225 0.404 0.492 0.526 0.787s0.185 0.61 0.185 0.928-0.063 0.634-0.185 0.928c-0.122 0.294-0.301 0.562-0.526 0.787l-0.073 0.073c-0.279 0.286-0.467 0.649-0.538 1.042s-0.023 0.799 0.138 1.164v0.097c0.154 0.358 0.409 0.664 0.734 0.88s0.706 0.331 1.096 0.332h0.206c0.643 0 1.26 0.255 1.714 0.71s0.71 1.071 0.71 1.714c0 0.643-0.255 1.26-0.71 1.714s-1.071 0.71-1.714 0.71h-0.109c-0.39 0.002-0.771 0.117-1.096 0.332s-0.58 0.521-0.734 0.88z"></path>
</symbol>
<symbol id="icon-success" viewBox="0 0 32 32">
<path fill="#3cbf61" style="fill: var(--color4, #3cbf61)" d="M16 29.333c-7.364 0-13.333-5.969-13.333-13.333s5.969-13.333 13.333-13.333 13.333 5.969 13.333 13.333c0 7.364-5.969 13.333-13.333 13.333zM14.459 21.98l9.427-9.428-1.885-1.885-7.541 7.543-3.772-3.772-1.885 1.885 5.657 5.657z"></path>
</symbol>
<symbol id="icon-trash" viewBox="0 0 32 32">
<path fill="none" stroke="#ef8964" style="stroke: var(--color3, #ef8964)" stroke-linejoin="round" stroke-linecap="round" stroke-miterlimit="4" stroke-width="2.4" d="M12 4h8M13.333 14v6.667M18.667 14v6.667"></path>
<path fill="none" stroke="#ef8964" style="stroke: var(--color3, #ef8964)" stroke-linejoin="round" stroke-linecap="round" stroke-miterlimit="4" stroke-width="2.4" d="M4 8h24M25.333 8l-0.935 14.026c-0.14 2.104-0.21 3.156-0.665 3.954-0.4 0.702-1.004 1.267-1.731 1.62-0.826 0.4-1.881 0.4-3.99 0.4h-4.025c-2.109 0-3.163 0-3.99-0.4-0.727-0.352-1.331-0.917-1.731-1.62-0.455-0.798-0.525-1.85-0.665-3.954l-0.935-14.026"></path>
</symbol>
<symbol id="icon-warning" viewBox="0 0 32 32">
<path fill="#efa082" style="fill: var(--color5, #efa082)" d="M32 16c0 8.837-7.163 16-16 16s-16-7.163-16-16c0-8.837 7.163-16 16-16s16 7.163 16 16z"></path>
<path fill="none" stroke="#efede8" style="stroke: var(--color2, #efede8)" stroke-linejoin="round" stroke-linecap="round" stroke-miterlimit="4" stroke-width="2.6667" d="M16 25.333v0.013M16 20v-13.333"></path>
</symbol>
<symbol id="icon-user" viewBox="0 0 31 32">
<path fill="#d5d5d5" style="fill: var(--color1, #d5d5d5)" d="M0 0h31.484v32h-31.484z"></path>
<path fill="#040404" style="fill: var(--color2, #040404)" d="M-81.032-94.452h193.548v724.129h-193.548z"></path>
<path fill="#303030" style="fill: var(--color3, #303030); stroke: var(--color4, #e6533c)" opacity="0.3" stroke="#e6533c" stroke-linejoin="miter" stroke-linecap="butt" stroke-miterlimit="4" stroke-width="0.5161" d="M38.968 16c0 12.685-10.283 22.968-22.968 22.968s-22.968-10.283-22.968-22.968c0-12.685 10.283-22.968 22.968-22.968s22.968 10.283 22.968 22.968z"></path>
<path fill="#efede8" style="fill: var(--color5, #efede8)" opacity="0.1" d="M15.742 5.333c1.392 0 2.727 0.563 3.711 1.562 0.95 0.969 1.537 2.298 1.537 3.764 0 0.003 0 0.005 0 0.008v-0c0 0.002 0 0.004 0 0.007 0 1.466-0.587 2.795-1.538 3.765l0.001-0.001c-0.944 0.963-2.257 1.56-3.71 1.562h-0c-1.453-0.002-2.767-0.599-3.71-1.561l-0.001-0.001c-0.95-0.969-1.537-2.298-1.537-3.764 0-0.003 0-0.005 0-0.008v0c0-0.002 0-0.005 0-0.008 0-1.466 0.586-2.795 1.537-3.765l-0.001 0.001c0.944-0.963 2.257-1.56 3.711-1.562h0zM15.742 26.667s10.495 0 10.495-2.667c0-3.2-5.116-6.667-10.495-6.667s-10.494 3.467-10.494 6.667c0 2.667 10.494 2.667 10.494 2.667z"></path>
</symbol>
</defs>
</svg>
